Input #0, mov,mp4,m4a,3gp,3g2,mj2, from '/home/runner/work/Auto_Browser/Auto_Browser/recordings/oncc/latest.mp4':
  Metadata:
    major_brand     : isom
    minor_version   : 512
    compatible_brands: isomiso2avc1mp41
    encoder         : Lavf60.16.100
  Duration: 00:01:59.00, start: 0.000000, bitrate: 699 kb/s
  Stream #0:0[0x1](und): Video: h264 (High) (avc1 / 0x31637661), yuv420p(progressive), 1366x900, 697 kb/s, 25 fps, 25 tbr, 12800 tbn (default)
    Metadata:
      handler_name    : VideoHandler
      vendor_id       : [0][0][0][0]
      encoder         : Lavc60.31.102 libx264
Stream mapping:
  Stream #0:0 -> #0:0 (h264 (native) -> vp8 (libvpx))
Press [q] to stop, [?] for help
[libvpx @ 0x5556567c4240] v1.14.0
Output #0, webm, to '/home/runner/work/Auto_Browser/Auto_Browser/recordings/oncc/latest.webm':
  Metadata:
    major_brand     : isom
    minor_version   : 512
    compatible_brands: isomiso2avc1mp41
    encoder         : Lavf60.16.100
  Stream #0:0(und): Video: vp8, yuv420p(progressive), 1366x900, q=2-31, 1800 kb/s, 25 fps, 1k tbn (default)
    Metadata:
      handler_name    : VideoHandler
      vendor_id       : [0][0][0][0]
      encoder         : Lavc60.31.102 libvpx
    Side data:
      cpb: bitrate max/min/avg: 0/0/0 buffer size: 0 vbv_delay: N/A
frame=    0 fps=0.0 q=11.0 size=       0kB time=00:00:00.00 bitrate=N/A speed=   0x    frame=   40 fps=0.0 q=48.0 size=       1kB time=00:00:01.60 bitrate=   3.1kbits/s speed=3.11x    frame=   78 fps= 76 q=4.0 size=       1kB time=00:00:03.12 bitrate=   1.6kbits/s speed=3.05x    frame=  118 fps= 77 q=11.0 size=       1kB time=00:00:04.72 bitrate=   1.1kbits/s speed=3.07x    frame=  149 fps= 73 q=12.0 size=    1024kB time=00:00:05.96 bitrate=1407.5kbits/s speed= 2.9x    frame=  183 fps= 72 q=11.0 size=    1024kB time=00:00:07.32 bitrate=1146.0kbits/s speed=2.86x    frame=  219 fps= 72 q=20.0 size=    1024kB time=00:00:08.76 bitrate= 957.6kbits/s speed=2.86x    frame=  255 fps= 71 q=19.0 size=    1024kB time=00:00:10.20 bitrate= 822.4kbits/s speed=2.86x    frame=  284 fps= 70 q=13.0 size=    2304kB time=00:00:11.36 bitrate=1661.5kbits/s speed=2.79x    frame=  317 fps= 69 q=13.0 size=    2304kB time=00:00:12.68 bitrate=1488.5kbits/s speed=2.77x    frame=  350 fps= 69 q=7.0 size=    2304kB time=00:00:14.00 bitrate=1348.2kbits/s speed=2.76x    frame=  382 fps= 68 q=12.0 size=    2304kB time=00:00:15.28 bitrate=1235.2kbits/s speed=2.73x    frame=  406 fps= 67 q=15.0 size=    3584kB time=00:00:16.24 bitrate=1807.9kbits/s speed=2.66x    frame=  443 fps= 67 q=13.0 size=    3584kB time=00:00:17.72 bitrate=1656.9kbits/s speed=2.68x    frame=  473 fps= 67 q=37.0 size=    3584kB time=00:00:18.92 bitrate=1551.8kbits/s speed=2.66x    frame=  498 fps= 65 q=24.0 size=    3584kB time=00:00:19.92 bitrate=1473.9kbits/s speed=2.62x    frame=  524 fps= 65 q=44.0 size=    4608kB time=00:00:20.96 bitrate=1801.0kbits/s speed=2.58x    frame=  552 fps= 64 q=20.0 size=    4608kB time=00:00:22.08 bitrate=1709.6kbits/s speed=2.56x    frame=  587 fps= 64 q=12.0 size=    4608kB time=00:00:23.48 bitrate=1607.7kbits/s speed=2.57x    frame=  622 fps= 65 q=12.0 size=    4608kB time=00:00:24.84 bitrate=1519.7kbits/s speed=2.58x    frame=  647 fps= 64 q=12.0 size=    5632kB time=00:00:25.88 bitrate=1782.7kbits/s speed=2.55x    frame=  682 fps= 64 q=12.0 size=    5632kB time=00:00:27.28 bitrate=1691.3kbits/s speed=2.56x    frame=  716 fps= 64 q=20.0 size=    5632kB time=00:00:28.64 bitrate=1610.9kbits/s speed=2.57x    frame=  754 fps= 65 q=12.0 size=    5632kB time=00:00:30.16 bitrate=1529.8kbits/s speed=2.58x    frame=  783 fps= 64 q=22.0 size=    6912kB time=00:00:31.32 bitrate=1807.9kbits/s speed=2.57x    frame=  823 fps= 65 q=12.0 size=    6912kB time=00:00:32.92 bitrate=1720.0kbits/s speed= 2.6x    frame=  864 fps= 65 q=11.0 size=    6912kB time=00:00:34.56 bitrate=1638.4kbits/s speed=2.62x    frame=  901 fps= 66 q=27.0 size=    7936kB time=00:00:36.04 bitrate=1803.9kbits/s speed=2.63x    frame=  936 fps= 66 q=13.0 size=    7936kB time=00:00:37.44 bitrate=1736.4kbits/s speed=2.63x    frame=  962 fps= 65 q=35.0 size=    7936kB time=00:00:38.48 bitrate=1689.5kbits/s speed=2.61x    frame=  987 fps= 65 q=40.0 size=    7936kB time=00:00:39.48 bitrate=1646.7kbits/s speed=2.59x    frame= 1015 fps= 64 q=38.0 size=    7936kB time=00:00:40.60 bitrate=1601.3kbits/s speed=2.58x    frame= 1039 fps= 64 q=44.0 size=    9216kB time=00:00:41.56 bitrate=1816.6kbits/s speed=2.56x    frame= 1071 fps= 64 q=15.0 size=    9216kB time=00:00:42.84 bitrate=1762.3kbits/s speed=2.56x    frame= 1109 fps= 64 q=13.0 size=    9216kB time=00:00:44.36 bitrate=1701.9kbits/s speed=2.57x    frame= 1142 fps= 64 q=12.0 size=    9216kB time=00:00:45.68 bitrate=1652.7kbits/s speed=2.57x    frame= 1173 fps= 64 q=13.0 size=   10240kB time=00:00:46.88 bitrate=1789.4kbits/s speed=2.56x    frame= 1210 fps= 64 q=17.0 size=   10240kB time=00:00:48.40 bitrate=1733.2kbits/s speed=2.58x    frame= 1253 fps= 65 q=13.0 size=   10240kB time=00:00:50.12 bitrate=1673.7kbits/s speed= 2.6x    frame= 1292 fps= 65 q=18.0 size=   11264kB time=00:00:51.68 bitrate=1785.5kbits/s speed=2.61x    frame= 1326 fps= 65 q=12.0 size=   11264kB time=00:00:53.04 bitrate=1739.7kbits/s speed=2.61x    frame= 1365 fps= 66 q=12.0 size=   11264kB time=00:00:54.60 bitrate=1690.0kbits/s speed=2.62x    frame= 1404 fps= 66 q=11.0 size=   11264kB time=00:00:56.16 bitrate=1643.1kbits/s speed=2.63x    frame= 1437 fps= 66 q=13.0 size=   12288kB time=00:00:57.48 bitrate=1751.3kbits/s speed=2.63x    frame= 1467 fps= 66 q=27.0 size=   12288kB time=00:00:58.68 bitrate=1715.5kbits/s speed=2.63x    frame= 1487 fps= 65 q=36.0 size=   12288kB time=00:00:59.48 bitrate=1692.4kbits/s speed= 2.6x    frame= 1512 fps= 65 q=39.0 size=   12288kB time=00:01:00.48 bitrate=1664.4kbits/s speed=2.59x    frame= 1539 fps= 64 q=23.0 size=   13568kB time=00:01:01.56 bitrate=1805.5kbits/s speed=2.58x    frame= 1574 fps= 65 q=18.0 size=   13568kB time=00:01:02.96 bitrate=1765.4kbits/s speed=2.58x    frame= 1605 fps= 64 q=12.0 size=   13568kB time=00:01:04.20 bitrate=1731.3kbits/s speed=2.57x    frame= 1636 fps= 64 q=12.0 size=   13568kB time=00:01:05.44 bitrate=1698.5kbits/s speed=2.57x    frame= 1665 fps= 64 q=19.0 size=   14592kB time=00:01:06.60 bitrate=1794.9kbits/s speed=2.57x    frame= 1697 fps= 64 q=17.0 size=   14592kB time=00:01:07.88 bitrate=1761.0kbits/s speed=2.56x    frame= 1734 fps= 64 q=12.0 size=   14592kB time=00:01:09.36 bitrate=1723.4kbits/s speed=2.57x    frame= 1771 fps= 64 q=12.0 size=   14592kB time=00:01:10.84 bitrate=1687.4kbits/s speed=2.58x    frame= 1803 fps= 64 q=22.0 size=   15616kB time=00:01:12.12 bitrate=1773.8kbits/s speed=2.58x    frame= 1834 fps= 64 q=12.0 size=   15616kB time=00:01:13.36 bitrate=1743.8kbits/s speed=2.58x    frame= 1867 fps= 64 q=12.0 size=   15616kB time=00:01:14.68 bitrate=1713.0kbits/s speed=2.57x    frame= 1899 fps= 64 q=13.0 size=   15616kB time=00:01:15.96 bitrate=1684.1kbits/s speed=2.57x    frame= 1929 fps= 64 q=23.0 size=   16896kB time=00:01:17.16 bitrate=1793.8kbits/s speed=2.57x    frame= 1954 fps= 64 q=36.0 size=   16896kB time=00:01:18.16 bitrate=1770.9kbits/s speed=2.56x    frame= 1976 fps= 64 q=39.0 size=   16896kB time=00:01:19.04 bitrate=1751.2kbits/s speed=2.55x    frame= 2001 fps= 63 q=38.0 size=   16896kB time=00:01:20.04 bitrate=1729.3kbits/s speed=2.54x    frame= 2027 fps= 63 q=14.0 size=   16896kB time=00:01:21.08 bitrate=1707.1kbits/s speed=2.53x    frame= 2062 fps= 63 q=14.0 size=   17920kB time=00:01:22.48 bitrate=1779.8kbits/s speed=2.53x    frame= 2098 fps= 63 q=12.0 size=   17920kB time=00:01:23.92 bitrate=1749.3kbits/s speed=2.54x    frame= 2140 fps= 64 q=12.0 size=   17920kB time=00:01:25.60 bitrate=1715.0kbits/s speed=2.55x    frame= 2179 fps= 64 q=19.0 size=   19200kB time=00:01:27.12 bitrate=1805.4kbits/s speed=2.55x    frame= 2214 fps= 64 q=12.0 size=   19200kB time=00:01:28.56 bitrate=1776.0kbits/s speed=2.56x    frame= 2251 fps= 64 q=11.0 size=   19200kB time=00:01:30.04 bitrate=1746.9kbits/s speed=2.56x    frame= 2292 fps= 64 q=12.0 size=   19200kB time=00:01:31.68 bitrate=1715.6kbits/s speed=2.57x    frame= 2326 fps= 64 q=13.0 size=   20224kB time=00:01:33.04 bitrate=1780.7kbits/s speed=2.57x    frame= 2368 fps= 65 q=12.0 size=   20224kB time=00:01:34.72 bitrate=1749.1kbits/s speed=2.58x    frame= 2410 fps= 65 q=12.0 size=   20224kB time=00:01:36.40 bitrate=1718.6kbits/s speed=2.59x    frame= 2448 fps= 65 q=13.0 size=   21248kB time=00:01:37.92 bitrate=1777.6kbits/s speed= 2.6x    frame= 2480 fps= 65 q=28.0 size=   21248kB time=00:01:39.20 bitrate=1754.7kbits/s speed= 2.6x    frame= 2506 fps= 65 q=24.0 size=   21248kB time=00:01:40.24 bitrate=1736.5kbits/s speed=2.59x    frame= 2534 fps= 65 q=35.0 size=   21248kB time=00:01:41.32 bitrate=1718.0kbits/s speed=2.58x    frame= 2569 fps= 65 q=12.0 size=   22528kB time=00:01:42.76 bitrate=1795.9kbits/s speed=2.59x    frame= 2607 fps= 65 q=12.0 size=   22528kB time=00:01:44.28 bitrate=1769.7kbits/s speed=2.59x    frame= 2645 fps= 65 q=9.0 size=   22528kB time=00:01:45.80 bitrate=1744.3kbits/s speed= 2.6x    frame= 2686 fps= 65 q=11.0 size=   22528kB time=00:01:47.44 bitrate=1717.7kbits/s speed=2.61x    frame= 2733 fps= 65 q=7.0 size=   23552kB time=00:01:49.28 bitrate=1765.5kbits/s speed=2.62x    frame= 2772 fps= 66 q=6.0 size=   23552kB time=00:01:50.88 bitrate=1740.1kbits/s speed=2.63x    frame= 2818 fps= 66 q=18.0 size=   24064kB time=00:01:52.72 bitrate=1748.9kbits/s speed=2.64x    frame= 2869 fps= 66 q=11.0 size=   24064kB time=00:01:54.76 bitrate=1717.8kbits/s speed=2.65x    frame= 2929 fps= 67 q=11.0 size=   24064kB time=00:01:57.16 bitrate=1682.6kbits/s speed=2.68x    [out#0/webm @ 0x5556567a9bc0] video:24855kB audio:0kB subtitle:0kB other streams:0kB global headers:0kB muxing overhead: 0.088866%
frame= 2975 fps= 67 q=11.0 Lsize=   24877kB time=00:01:58.96 bitrate=1713.1kbits/s speed=2.69x    
